<svg xmlns="http://www.w3.org/2000/svg" viewBox="0 0 192 192" width="192" height="192">
  <rect width="192" height="192" rx="42" fill="#FFFFFF"/>
  <g transform="translate(42 42) scale(0.2160)">
    <g transform="translate(0 500) scale(0.1 -0.1)" fill="#5C3FFC">
      <path d="M2037 3800 c-104 -40 -191 -134 -231 -250 -23 -67 -20 -82 22 -109 31 -20 287 -177 1009 -618 40 -24 82 -56 93 -70 27 -34 27 -102 0 -136 -11 -13 -106 -78 -212 -143 -106 -64 -201 -124 -210 -132 -16 -14 -18 -41 -18 -302 0 -291 2 -310 38 -310 16 0 267 148 610 359 180 111 270 173 310 213 216 217 215 574 -3 793 -37 38 -107 89 -185 136 -69 42 -253 154 -410 249 -434 264 -509 307 -563 326 -57 20 -191 17 -250 -6z"/>
    <path d="M1803 2994 c-10 -5 -13 -156 -13 -709 0 -671 1 -706 20 -767 27 -89 93 -184 167 -240 89 -67 157 -90 281 -96 92 -4 105 -2 117 14 12 16 14 134 15 735 0 669 -1 718 -17 737 -20 23 -514 322 -541 327 -9 2 -23 2 -29 -1z"/>
    </g>
  </g>
</svg>
